<?xml version="1.0" standalone="no"?><!DOCTYPE svg PUBLIC "-//W3C//DTD SVG 1.1//EN" "http://www.w3.org/Graphics/SVG/1.1/DTD/svg11.dtd"><svg t="1712738155189" class="icon" viewBox="0 0 1024 1024" version="1.1" xmlns="http://www.w3.org/2000/svg" p-id="29112" width="100" height="100" xmlns:xlink="http://www.w3.org/1999/xlink"><path d="M626.07282 692.908834v-45.954276c0-9.483489-2.312165-18.605701-4.172735-27.800169-0.578041-2.854078-1.914762-5.473328-3.359865-7.96613-2.926334-5.057861-9.15834-7.785493-14.866497-6.430709-3.811459 0.903189-7.640982 1.517358-11.506633 2.041208-6.954558 0.939317-13.222693 4.118544-19.725656 6.430709-4.750776 1.679932-9.501552 3.468247-13.909117 5.96105-7.261643 4.118544-15.083263 7.135196-22.073948 11.83178-4.172735 2.817951-8.526108 5.364945-12.554333 8.417726-4.317245 3.269546-7.388089 7.622918-10.838273 11.68727-3.341801 3.919842-4.407564 9.068021-7.803556 12.861417-0.758679 0.848998-1.445103 1.842506-2.348292 2.52893-6.755857 4.967542-11.000847 11.687271-13.800734 19.4547-0.632233 1.770251-1.300593 3.540502-2.221846 5.166243-2.655377 4.714649-3.395992 10.097657-5.509455 15.011008-0.957381 2.23991-0.81287 4.823031-0.812871 7.279706 0.018064 11.849845-1.300593 23.609371-2.239909 35.38696-0.054191 0.578041-0.252893 1.174146-0.162574 1.71606 1.697996 9.086085-1.19221 18.117979-0.289021 27.186001 0.270957 2.745696-0.090319 5.455264-0.686424 8.164832-1.354784 6.087496-1.0477 12.373695-1.71606 18.533446-0.758679 6.936494-2.601185 13.674287-4.750776 20.213379-2.185718 6.62941-6.954558 10.856336-14.234265 12.572396-4.62433 1.083827-8.815128 1.228338-13.060118-0.596105-5.112052-2.203782-9.68219-5.14818-12.716907-10.025402-0.794807-1.282529-1.246401-2.565058-0.975444-4.10048 0.632233-3.57663 0.52385-7.207451 0.596105-10.802145 0.036128-2.185718 0.198702-4.335309 0.776742-6.430709 0.830934-3.106971 1.156082-6.232007 1.011573-9.447361-0.162574-3.685013 0.469658-7.261643 2.474738-10.386678 1.806379-2.817951 2.52893-5.798476 2.276038-9.068021-0.361276-4.859159 1.138019-9.212532 2.565058-13.836861 1.932825-6.250071 2.854078-12.825289 5.816539-18.804404 0.469658-0.957381 0.270957-2.276037 0.216766-3.432119-0.162574-3.450183 0.578041-6.575219 2.727632-9.357042 1.463167-1.896698 1.932825-4.172735 1.932825-6.539091 0-2.836015 0.722552-5.401073 2.510866-7.659046 1.390912-1.770251 1.878634-3.847587 1.95089-6.087497 0.072255-3.088908 0.578041-6.051369 2.872142-8.399661 0.198702-0.198702 0.397403-0.469658 0.451594-0.740615 1.0477-5.256562 4.082416-9.844764 5.220435-15.047136 0.451595-2.023144 1.0477-3.811459 2.276037-5.491391 3.377928-4.62433 3.05278-8.435789-0.885125-12.789162-2.619249-2.890206-5.202371-5.798476-7.893875-8.63449-1.499294-1.57155-2.23991-3.305673-2.131527-5.455264 0.704488-15.751623-0.52385-31.485182-0.036128-47.236805 0.072255-2.366356 0.686424-4.371437 2.257973-6.34039 2.854078-3.558566 5.075924-7.388089 6.828112-11.795653 2.059272-5.184307 3.666949-10.567316 5.997178-15.697432 2.456675-5.383009 5.473328-10.549252 7.117132-16.492238 1.372848-4.985605 2.655377-10.278295 5.166243-15.011008 0.14451-0.252893 0.325148-0.505786 0.361276-0.776742 0.794807-6.828112 4.24499-12.825289 5.942986-19.364381 0.433531-1.679932 0.993508-3.305673 1.679933-4.91335 2.872142-6.755857 5.455264-13.602032 7.261642-20.773356 1.553486-6.123624 4.208863-11.940164 6.159752-17.955405 1.950889-6.015241 4.515947-11.813717 6.791984-17.702512 2.294101-5.924922 3.974033-11.940164 5.563647-18.045724 0.758679-2.90827 2.023144-5.690093 2.637313-8.670618 0.433531-2.131527 1.0477-4.226926 2.420547-5.979114 1.589613-2.041208 2.221846-4.371437 2.041208-6.900367-0.216765-3.125035 0.52385-6.015241 1.914762-8.779001 1.390912-2.745696 1.842506-5.726221 2.366356-8.724809 0.81287-4.606266-1.029636-7.96613-4.62433-10.404742-3.016653-2.041208-6.358453-3.359865-10.133785-3.341801-5.509455 0.036128-10.964719 0.559977-16.419983 1.210274-6.34039 0.758679-12.662715 0.993508-19.039232 0.433531-2.90827-0.252893-5.653966-1.011572-8.381597-2.059272-4.208863-1.625741-6.213943-5.021733-7.550664-8.941575-0.867062-2.510866-0.198702-4.823031 1.589614-6.828112a19.310189 19.310189 0 0 1 8.616426-5.617838c10.58538-3.377928 20.972058-7.279706 31.828394-9.898955 7.96613-1.914762 15.932261-4.172735 23.392606-7.82162 1.842506-0.903189 3.504375-1.932825 4.967541-3.377929 4.118544-4.064352 7.586791-8.598363 10.242168-13.746542 0.722552-1.390912 1.679932-2.691504 2.67344-3.919842 3.504375-4.263054 5.184307-9.53768 7.984195-14.180073 0.216765-0.361276 0.505786-0.758679 0.559977-1.174147 0.559977-4.118544 2.745696-7.496472 4.642393-11.055038 1.535422-2.90827 2.546994-6.087496 4.118544-9.031894 4.91335-9.194468 8.815128-18.822467 11.77759-28.829805 0.867062-2.926334 1.372848-5.924922 1.463166-8.959639 0.325148-10.549252 1.318657-21.044313 1.318657-31.611628 0-11.325995-0.903189-22.50748-4.76884-33.273497-0.686424-1.914762-1.408975-3.775332-2.601185-5.4372-4.226926-5.906859-5.274626-12.373695-3.215355-19.328253 1.390912-4.732712 5.202371-7.388089 10.133785-6.900367 3.19729 0.307084 6.195879 1.427039 9.031894 2.872142 2.962461 1.517358 5.690093 3.450183 8.255151 5.563647 2.583122 2.113463 4.76884 4.552075 5.834604 7.893875 1.065763 3.323737 2.890206 6.358453 5.093988 9.01383 4.949478 5.979114 7.207451 13.078182 8.959638 20.41208a107.569856 107.569856 0 0 1 2.257974 37.446232c-0.921253 8.020322-2.691504 15.914197-5.057861 23.681626-3.450183 11.344059-8.110641 22.254587-11.795653 33.490263-1.138019 3.468247-1.914762 6.954558-1.806379 10.621507 0.018064 0.722552-0.054191 1.463167 0.090319 2.167654 1.481231 7.099069 2.926334 9.935083 11.344059 8.923511 3.034716-0.361276 5.780412-1.481231 8.616427-2.637313 4.91335-2.023144 9.736382-4.335309 14.884561-5.870731 4.967542-1.481231 9.808637-3.468247 14.505221-5.653965 6.990686-3.251482 14.414903-5.220435 21.766865-7.207452 13.11431-3.522439 26.445385-6.177815 40.101608-6.665537 4.335309-0.162574 8.688682-0.37934 12.951736-1.0477 10.025402-1.57155 19.129551 1.119955 28.107254 5.166243 4.208863 1.896698 7.622918 4.606266 10.531188 8.092577 3.143099 3.775332 4.190799 8.110641 3.847587 12.933672-0.234829 3.305673-1.914762 5.29269-4.985605 6.34039-1.679932 0.578041-3.377928 0.686424-5.112052 0.758679-8.688682 0.37934-17.305109-0.66836-25.9396-1.408976-15.372283-1.318657-30.600056-0.343212-45.611064 3.233418-2.655377 0.632233-5.238498 1.625741-7.803556 2.583122-2.167655 0.81287-4.335309 1.589613-6.611346 2.059272-10.838273 2.185718-21.170759 5.690093-30.455546 11.904036-2.38442 1.589613-5.075924 2.745696-7.713238 3.937906-9.104149 4.10048-17.521874 9.483489-26.37313 14.07169-2.546994 1.318657-5.003669 3.016653-7.044877 5.00367-6.304262 6.141688-13.060119 11.759526-19.436636 17.810894-4.136607 3.919842-7.081005 8.435789-8.63449 14.180074-1.607677 5.906859-3.215354 12.012419-7.081005 17.106407-0.596105 0.776743-0.939317 1.806379-1.210274 2.763759-1.228338 4.62433-2.601185 9.140277-5.491391 13.096246-1.029636 1.408975-0.776743 3.43212-1.463167 4.931414-2.474739 5.310754-2.546994 11.271804-4.407564 16.582558-1.824443 5.238498-3.811459 10.567316-5.617838 15.78775-2.149591 6.213943-4.804968 12.247248-7.117133 18.370872-1.914762 5.075924-3.269546 10.332487-5.238498 15.336156-2.583122 6.539091-5.4372 12.9698-6.86424 19.88823-0.325148 1.589613-0.885126 3.088908-1.878633 4.335309-1.842506 2.38442-2.348292 5.184307-3.052781 8.002258-1.607677 6.412645-2.817951 12.987863-6.358453 18.750212-0.776743 1.264465-1.011572 2.673441-1.318656 4.10048-1.788315 8.363534-2.149591 16.907705-3.377929 25.32543a6.4849 6.4849 0 0 0 6.177816 7.460345c7.351962 0.343212 14.721987 0.307084 22.092012 0.379339 0.704488 0 1.57155-0.054191 2.095399-0.433531 3.630821-2.745696 8.110641-2.817951 12.229185-4.028224 10.025402-2.926334 19.635337-6.846176 28.75755-11.885973 5.58171-3.070844 11.325995-5.762348 17.21479-8.164832 4.588202-1.878634 8.760937-4.425628 12.283375-7.96613 2.962461-2.962461 4.823031-6.521027 5.29269-10.675699 0.758679-6.737793 1.318657-13.511713 1.932825-20.26757 0.14451-1.589613-0.108383-3.161163-0.523849-4.714648-0.307084-1.119955-0.758679-2.23991-0.812871-3.359865-0.234829-4.967542-2.330229-9.39317-3.630821-14.053627-1.71606-6.159752-4.10048-12.229184-4.823032-18.623765-0.37934-3.323737-0.487722-6.611346-2.294101-9.573807-0.686424-1.138019-0.776743-2.456675-0.921253-3.757268-0.415467-3.594694-0.993508-7.15326-1.932825-10.657635-2.294101-8.742873 3.847587-13.78267 9.15834-16.058707 1.950889-0.830934 3.974033-0.451595 5.924923 0.270957 7.659046 2.890206 14.396839 7.29777 20.646909 12.500141 0.216765 0.180638 0.505786 0.361276 0.596105 0.614169 2.167655 5.130116 6.141688 9.53768 6.412645 15.444538 0.162574 3.811459 1.011572 7.388089 2.872142 10.784081 1.101891 2.023144 1.679932 4.299181 1.86057 6.62941 0.37934 4.895286 0.867062 9.790573 1.119955 14.68586 0.126447 2.637313 0.505786 5.166243 1.372848 7.640982 0.578041 1.643805 1.408975 3.269546 1.553486 4.949478 0.397403 5.093988 3.72114 7.550663 7.839683 9.483489 1.300593 0.614169 2.637313 1.174146 3.919842 1.824442 5.256562 2.673441 10.766017 3.251482 16.438047 1.71606 5.888795-1.589613 11.849845-2.456675 17.919278-2.998589 7.478408-0.66836 14.920689-1.734124 22.399097-2.456675 10.72989-1.0477 21.351397 0 31.918712 1.842506 4.497883 0.794807 8.471916 2.781823 11.578888 6.322326 1.228338 1.408975 2.709568 2.601185 4.136608 3.811459 3.829523 3.251482 2.90827 8.706746-1.824443 10.747954-1.354784 0.578041-2.799887 0.650296-4.24499 0.686424-3.323737 0.072255-6.647474 0.126447-9.971211 0.162574-4.371437 0.072255-8.580299 0.650296-12.626587 2.565058-4.10048 1.950889-8.760937 1.697996-13.11431 2.673441-7.189388 1.625741-14.198137 3.72114-21.224951 5.961049-6.575219 2.113463-12.572396 5.924922-19.59921 6.611347-6.466836 4.046288-14.487158 3.811459-21.062376 7.604854-0.614169 0.361276-1.33672 0.541914-2.023144 0.740616-5.075924 1.535422-5.744285 2.23991-6.033305 7.478408-0.14451 2.583122 0.198702 5.184307 0.216765 7.785492 0.054191 19.07536 0.361276 38.132656-0.216765 57.208016-0.216765 7.351962 0.198702 14.740051 0.162574 22.110076-0.090319 20.375953-0.52385 40.751905-0.361276 61.109794 0.234829 26.589896-0.415467 53.161727-0.234829 79.751623 0.108383 16.907705 0.126447 33.797347 0.234829 50.705052 0.036128 5.852667-0.885126 11.470505-3.233418 16.889642-0.975445 2.23991-1.354784 4.714649-2.077336 7.044877-1.535422 5.003669-3.287609 9.880892-7.604854 13.313012-2.655377 2.113463-5.563647 3.57663-8.941575 4.136607-4.136607 0.66836-8.327406 1.101891-12.373695 2.149591-5.4372 1.408975-9.989275-0.180638-14.162009-3.414056a29.642676 29.642676 0 0 0-7.099069-4.10048c-0.66836-0.270957-1.354784-0.578041-1.896698-1.011572-11.578888-9.357042-22.633926-19.274062-32.532882-30.419418-3.630821-4.10048-7.171324-8.273215-10.025402-12.987864-1.065763-1.770251-1.842506-3.612758-2.294101-5.58171-0.614169-2.583122 0.469658-3.937906 3.143099-3.829523 2.00508 0.072255 4.028225 0.433531 5.997178 0.903189 6.177815 1.499294 12.319503 3.125035 18.497319 4.660457 8.273215 2.077336 16.329664 1.427039 24.151284-1.950889 3.72114-1.607677 5.635902-4.931414 7.081005-8.417725 2.402484-5.726221 3.847587-11.741462 5.292689-17.810895 2.872142-12.120802 3.558566-24.584815 6.62941-36.651425 0.81287-3.215354 0.903189-6.575219 1.029636-9.898956 0.397403-10.675699 0.343212-21.369461 1.354784-32.027095 0.361276-3.847587-0.162574-7.785493-0.28902-11.687271-0.559977-13.25882-0.37934-26.553768-0.325148-39.848716zM290.285069 688.754163c-0.451595 15.661304 0.036128 34.447643-0.270957 53.233983-0.270957 16.004516-0.867062 32.063223 0.23483 48.085803 0.541914 7.930003 0.433531 15.878069 0.325148 23.826136-0.054191 3.341801 0.14451 6.62941 0.81287 9.917019 2.619249 13.078182 3.703076 26.318939 3.450184 39.650014-0.072255 3.883714-0.52385 7.785493-0.848998 11.669207-0.090319 0.993508-0.307084 2.00508-0.541914 2.980525-2.546994 10.242168-12.915608 13.313012-20.773356 6.195879-5.401073-4.895286-9.284787-10.72989-12.44595-17.395427-2.745696-5.798476-3.414056-11.867909-4.624329-17.901214-0.397403-1.987017-0.343212-4.046288-0.830935-5.997177-2.781823-11.344059-2.872142-22.886819-2.67344-34.465708 0.252893-14.017499 0.198702-28.016935 1.138018-42.01637 0.505786-7.695174 2.619249-15.083263 3.504375-22.670053 1.987017-17.070279 3.883714-34.122495 3.540503-51.391477-0.451595-22.525543-0.252893-45.06915-0.126447-67.594693 0.072255-13.005927-1.246401-25.975727-0.632232-38.999718 0.596105-12.409822-0.054191-24.837708 0.018063-37.265594 0.036128-5.346881 0.361276-10.675699 0.939317-16.004516 0.957381-8.779001 0.758679-17.594129 0.740616-26.409258-0.018064-8.237087-0.216765-16.474174-0.216766-24.693198 0-4.804968-0.632233-9.501552-1.987016-14.107818-0.686424-2.348292-1.318657-4.750776-1.697996-7.171324-0.559977-3.630821-1.607677-6.990686-3.594694-10.115721-0.830934-1.318657-1.517358-2.890206-1.71606-4.407564-0.37934-2.926334-1.932825-5.473328-2.52893-8.20096-1.228338-5.617838-4.678521-10.151849-6.683602-15.354219-0.957381-2.492803-2.890206-4.62433-4.371436-6.936495-2.257973-3.522439-1.210274-6.177815 2.872142-7.189387 0.686424-0.162574 1.463167-0.252893 2.131527-0.108383 7.15326 1.679932 14.396839 2.998589 20.502399 7.67711 4.10048 3.143099 5.997178 7.67711 8.381597 11.904036 0.975445 1.734124 1.607677 3.685013 2.962462 5.238498 0.289021 0.325148 0.66836 0.704488 0.686423 1.083828 0.559977 6.448772 4.949478 11.578888 6.105561 17.810894 0.162574 0.848998 0.072255 1.842506 0.487722 2.546994 2.366356 4.10048 3.486311 8.48998 3.57663 13.204629 0.018064 1.33672 0.975445 2.38442 1.788315 3.395992 2.348292 2.90827 3.57663 6.213943 3.757268 9.953147 0.126447 2.456675 0.487722 4.877223 1.427039 7.189388 1.553486 3.811459 2.221846 7.767429 1.950889 11.867908-0.252893 3.883714 0.848998 7.315834 2.890206 10.657635 1.697996 2.781823 3.901778 4.335309 7.026814 4.190799 5.364945-0.252893 10.187976 1.643805 15.11939 3.287609 3.847587 1.300593 7.767429 2.221846 11.904036 1.950889 3.395992-0.234829 6.521027 0.559977 9.555744 2.221846 3.829523 2.113463 7.984194 3.269546 12.482077 2.980525 3.630821-0.234829 7.117132 0.343212 10.639571 1.445103 7.442281 2.348292 10.025402-0.036128 8.851256-7.731301-0.307084-2.00508-0.559977-4.118544-1.679932-5.798476-1.987017-2.998589-2.76376-6.304262-3.161163-9.772509a11.127293 11.127293 0 0 0-1.535422-4.479819c-1.300593-2.131527-2.059272-4.461756-2.583122-6.86424-0.343212-1.57155-0.758679-3.125035-1.878634-4.317245-2.221846-2.38442-2.926334-5.256562-2.908269-8.381597 0.018064-2.944397-0.596105-5.726221-1.842507-8.381598-0.487722-1.0477-0.867062-2.149591-1.101891-3.287609-3.088908-15.300028-7.749365-30.166526-12.391758-45.051087-2.312165-7.424217-2.276037-15.11939-2.52893-22.760372-0.234829-7.351962-0.234829-14.740051 0.054191-22.092013 0.162574-3.919842-0.903189-7.29777-3.468247-9.917019-4.028225-4.118544-7.586791-8.688682-12.030483-12.409823-3.72114-3.125035-7.893875-4.642393-12.753034-4.497883-5.509455 0.162574-10.964719 0.885126-16.329664 2.041208-12.427886 2.673441-24.964155 4.732712-37.283658 7.948067-9.248659 2.420548-18.894722 2.438611-28.432402 2.167654-5.166243-0.14451-7.351962-3.72114-5.527519-8.742873 1.679932-4.62433 4.714649-8.237087 9.086085-10.639571 4.570138-2.52893 9.411233-4.606266 14.342648-6.069432 15.263901-4.534011 28.649167-12.843353 42.576347-20.159188 15.679368-8.237087 29.480102-19.237934 44.202089-28.883996 14.378775-9.411233 28.775614-18.768275 43.172453-28.161445 4.046288-2.637313 7.911939-2.854078 12.012418 0.180638 6.972622 5.166243 13.439458 10.946655 19.707593 16.925769 4.443692 4.24499 5.274626 9.338978 3.070844 15.083262-1.607677 4.172735-3.648885 8.182896-5.617838 12.15693-6.412645 12.915608-12.753034 25.84928-18.732148 38.96359-1.950889 4.281118-3.95597 8.616427-5.635902 13.078182-1.499294 3.992097-4.425628 7.442281-5.473328 11.687271-1.770251 7.135196-5.762348 13.547841-6.864239 20.899802-0.162574 1.101891-0.776743 2.167655-1.282529 3.197291-0.37934 0.776743-1.174146 1.408975-1.354784 2.203782-2.00508 8.074513-4.479819 16.221281 0.921253 23.98871 1.661868 2.38442 2.745696 5.057861 4.208863 7.550663 3.612758 6.213943 6.521027 12.843353 10.169912 19.021169 3.811459 6.430708 5.690093 13.872989 10.639571 19.671465 0.903189 1.065763 1.517358 2.510866 1.86057 3.883714 2.00508 7.749365 5.979114 14.721987 9.122213 21.947502 2.492803 5.708157 3.685013 11.77759 6.250071 17.449619 1.842506 4.046288 1.770251 9.01383 2.276037 13.602032 0.704488 6.304262 0.830934 12.662715 2.926334 18.768276 1.029636 2.998589 0.921253 6.268134 1.083827 9.447361 0.397403 8.237087-4.407564 13.349139-10.513124 17.630256-0.885126 0.614169-2.185718 0.704488-3.305674 0.90319-7.189388 1.264465-14.487158 1.481231-21.568162 0.036127-5.852667-1.19221-11.344059-4.028225-17.431555-4.515946a1.495682 1.495682 0 0 1-0.794807-0.343212c-3.215354-2.890206-7.15326-3.504375-11.271804-3.594694-1.499294-0.036128-2.836015-0.686424-3.919842-1.679932-2.294101-2.095399-5.039797-2.709568-8.002258-2.709569-3.233418 0-6.322326-0.541914-9.068021-2.420547-1.210274-0.830934-2.583122-1.246401-4.028225-1.499295-0.848998-0.14451-1.86057-0.14451-2.492802-0.632232-4.606266-3.522439-10.549252-3.775332-15.49873-6.376517-3.883714-2.041208-8.002258-2.420548-12.211121-2.131527-4.281118 0.289021-6.900367 2.709568-7.67711 6.936494-0.289021 1.553486-0.270957 3.161163-0.270956 4.750776-0.180638 25.578323 0.018064 51.156647-0.614169 76.716907-0.505786 18.208298-0.216765 36.380469 0.14451 57.695738zM874.702794 779.831781c0.14451 7.279706-0.307084 12.138865-3.016652 16.781259-2.23991 3.829523-5.473328 5.834603-9.338979 7.207451-3.594694 1.282529-7.333898 1.427039-11.109229 1.011572-10.802145-1.228338-19.581146-6.051369-26.734406-14.288456-4.24499-4.895286-8.453853-9.790573-11.994355-15.227773-0.234829-0.361276-0.596105-0.686424-0.704488-1.083827-2.023144-6.990686-6.611346-12.680779-9.898955-19.021169-2.167655-4.208863-3.72114-8.706746-6.304262-12.716906-0.830934-1.300593-1.463167-2.872142-1.71606-4.407565-1.553486-9.519616-6.448772-17.485747-11.705335-25.217047-3.558566-5.220435-8.86932-8.634491-13.963308-12.156929-5.924922-4.10048-11.723398-8.417725-18.226361-11.63308-0.794807-0.397403-1.553486-0.939317-1.336721-1.968953 0.198702-0.975445 1.0477-1.33672 1.914762-1.499294 0.993508-0.180638 2.00508-0.397403 2.998589-0.361276 6.918431 0.361276 13.764606 0.903189 20.357888 3.504375 5.744285 2.257973 11.904036 3.43212 17.612193 5.744285 5.310754 2.167655 10.946655 3.594694 15.914197 6.557155 0.614169 0.361276 1.246401 0.867062 1.914762 0.95738 6.268134 0.848998 10.856336 4.985605 16.094835 7.966131 11.217612 6.376517 19.472763 16.058707 28.504657 24.891899 3.811459 3.739204 7.604855 7.604855 9.971211 12.44595 2.077336 4.24499 4.985605 8.092577 6.232007 12.73497 0.072255 0.270957 0.126447 0.596105 0.307084 0.812871 4.985605 6.34039 3.775332 13.92718 4.226926 18.966977z" p-id="29113"></path></svg>