<?xml version="1.0" standalone="no"?><!DOCTYPE svg PUBLIC "-//W3C//DTD SVG 1.1//EN" "http://www.w3.org/Graphics/SVG/1.1/DTD/svg11.dtd"><svg t="1712738123594" class="icon" viewBox="0 0 1024 1024" version="1.1" xmlns="http://www.w3.org/2000/svg" p-id="20559" width="100" height="100" xmlns:xlink="http://www.w3.org/1999/xlink"><path d="M512 1024C229.23008 1024 0 794.76992 0 512S229.23008 0 512 0s512 229.23008 512 512-229.23008 512-512 512z m0-53.248c253.3632 0 458.752-205.3888 458.752-458.752 0-253.3632-205.3888-458.752-458.752-458.752-253.3632 0-458.752 205.3888-458.752 458.752 0 253.3632 205.3888 458.752 458.752 458.752z" fill="#333333" p-id="20560"></path><path d="M831.488 536.7296v-143.36H757.76v208.896h147.456v-65.536h-73.728z m-200.704 65.536H593.92v-73.35936l-133.0176 83.94496-128.6144-90.00704c-10.4448 38.5408-42.63424 68.01408-82.432 74.14528v1.1776H131.072v-204.8H225.28v0.4096a101.8112 101.8112 0 0 1 9.13664-0.4096c45.1072 0 83.33824 29.71136 96.53248 70.80192l132.288-86.31296 41.8304 30.89664-101.05088 68.57984 18.52672 11.9296 104.0384-69.0432 42.83904 30.62016-98.4832 67.14624 18.97472 14.7712L593.92 466.90048V393.3696h73.728v143.36h73.728v65.536h-110.592z m-434.176-151.552v90.112h29.69088v-0.18432c22.75328-2.07104 40.58368-21.37088 40.58368-44.87424 0-23.5008-17.8304-42.8032-40.58368-44.87168v-0.18432H196.608z" fill="#333333" p-id="20561"></path></svg>