<?xml version="1.0" standalone="no"?><!DOCTYPE svg PUBLIC "-//W3C//DTD SVG 1.1//EN" "http://www.w3.org/Graphics/SVG/1.1/DTD/svg11.dtd"><svg t="1764488220276" class="icon" viewBox="0 0 1024 1024" version="1.1" xmlns="http://www.w3.org/2000/svg" p-id="4754" xmlns:xlink="http://www.w3.org/1999/xlink" width="200" height="200"><path d="M512 0C229.22999 0 0 229.22999 0 512c0 282.767602 229.22999 511.997592 512 511.997592s512-229.22999 512-511.997592C1024.001204 229.22999 794.77001 0 512 0z m74.646322 229.614113c24.644087 0 45.076066 20.421141 45.076066 45.071249 0 24.6477-20.431979 45.066433-45.076066 45.066433-24.642883 0-45.070045-20.418733-45.070046-45.066433 0.001204-24.650108 20.428366-45.071249 45.070046-45.071249z m141.542748 483.088413c0 26.046919-2.821318 53.511121-9.156339 81.682157h-42.25234c0.704426-12.671247 2.115688-26.757367 2.115688-38.730208 0-89.429643-40.842283-162.668316-105.631451-180.977382-49.297808 95.068667-139.431877 128.867889-254.219668 140.833506v-35.202055c166.197673-54.226384 190.134926-92.954184 195.065911-170.417007 2.113279-30.279499 0.710447-66.903652 4.221742-113.377733-52.806694 1.404036-92.948163 30.281907-116.893845 74.649934 2.816502 4.929781 4.22415 11.264802 4.224151 17.603436 0 13.374469-7.034631 22.530808-15.488953 32.386757l39.434634 33.800427-78.87288 85.215126-128.869093-114.085772 71.827411-86.614346 40.844691 34.508465c8.451913-11.269619 21.12918-21.124364 33.804039-21.124363 2.81891 0 5.631799 0 7.745078 0.698406 37.330988-73.939487 112.674511-114.788994 198.594064-114.788995 96.471499 0 90.130457 94.367853 171.120229 94.367853 17.593802 0 40.833853-3.528153 53.514733-6.336225l2.815297 30.279499c-20.419937 8.454321-62.672277 19.713102-85.213922 19.713102-31.687147 0-59.153757-30.981517-78.164841-57.742496l-18.306658 107.042712c74.652342 36.621745 107.742322 105.629043 107.742322 186.615202z" fill="#FF558B" p-id="4755"></path><path d="M365.526267 477.501168l2.817705-7.049081c-9.155135 0-15.494973 8.450709-20.416324 14.790546l28.869441 24.6477c4.930985-6.338634 11.269619-13.381694 11.269619-19.720327 0-1.404036-0.705631-2.109667-0.705631-3.513703l-21.83481-9.155135z" fill="#FF558B" p-id="4756"></path></svg>